# xmcd
#
# Track frame offsets:
#	150
#	43239
#	88866
#	136773
#	163828
#
# Disc length: 3178 seconds
#
# Revision: 1
# Processed by: cddbd v1.5.1PL0 Copyright (c) Steve Scherf et al.
# Submitted via: audiograbber 1.83.01
#
DISCID=3f0c6805
DTITLE=Kenny Wayne Shepherd - 1999-02-12 - The Tabernacle,Atlanta, GA - FM - Di
DTITLE=sc 2
DYEAR=1900
DGENRE=
TTITLE0=The Things That I Used To Do (I Don't Do No More) (wBrian Lee)
TTITLE1=Blue On Black
TTITLE2=While We Cry
TTITLE3=Bass-Drum solo
TTITLE4=Voodoo Chile
EXTD=
EXTT0=
EXTT1=
EXTT2=
EXTT3=
EXTT4=
PLAYORDER=
